<?xml version="1.0" encoding="UTF-8"?>
<svg version="1.1" viewBox="0 0 1534 1202" width="1280" height="1280" xmlns="http://www.w3.org/2000/svg">
<path transform="translate(0)" d="m0 0h1534v1202h-1534z" fill="#FBFCFC"/>
<path transform="translate(57,260)" d="m0 0h388l8 4 4 6 1 3v70l-4 8-6 4-3 1h-388l-6-3-5-6-1-3v-72l3-6 6-5z" fill="#4492FF"/>
<path transform="translate(734,352)" d="m0 0h6v43l-1 1-15 2-14 5-11 7-10 9-8 10-7 14-3 11-1 17 2 15 5 14 7 11 9 10 10 8 14 7 11 3 17 1 15-2 14-5 11-7 12-11 7-10 6-12 3-11 1-17-2-15-5-14-7-11-11-12-10-7-12-6-11-3-11-1-1-1v-43l16 1 14 3 16 6 12 6 14 10 9 8 7 8 8 11 6 10 6 15 3 9 3 21v16l-3 21-6 17-7 14-10 14-8 9-8 7-11 8-10 6-15 6-9 3-21 3h-16l-21-3-17-6-14-7-14-10-9-8-7-8-8-11-6-10-6-15-3-9-3-21v-16l3-21 6-17 7-14 10-14 8-9 8-7 11-8 10-6 15-6 9-3z" fill="#0748B7"/>
<path transform="translate(0,1186)" d="m0 0h1534v16h-1534z" fill="#686868"/>
<path transform="translate(57,260)" d="m0 0h183v96h-183l-6-3-5-6-1-3v-72l3-6 6-5z" fill="#0179FE"/>
<path transform="translate(0)" d="m0 0h1534v6h-1534z" fill="#3F4040"/>
<path transform="translate(636,1012)" d="m0 0h12l12 4 8 6 7 10 3 10v12l-4 12-6 8-10 7-10 3h-12l-12-4-8-6-7-10-3-10v-12l4-12 6-8 10-7z" fill="#D0E8FE"/>
<path transform="translate(0,1186)" d="m0 0h1534v2h-1507v14h-27z" fill="#3F4040"/>
<path transform="translate(88,415)" d="m0 0h10l8 4 6 7 2 5v10l-4 8-7 6-5 2h-10l-7-3-5-5-4-8v-10l5-10 8-5z" fill="#F6FAFD"/>
<path transform="translate(91,287)" d="m0 0 6 1 14 11 2 3v22l-4 4h-32l-4-4v-22l4-5z" fill="#0279FE"/>
<path transform="translate(102,567)" d="m0 0 6 1 5 5v11l-3 3-8 1-1 20-3 1-6-3-5 4-5-3h-3l-5 2-2-2v-35l4-4z" fill="#EEF2F5"/>
<path transform="translate(1070,519)" d="m0 0h10l6 4 4 5 2 8v10l-3 10-4 5-9 3-9-2-5-5-3-6-1-6v-8l3-10 5-6z" fill="#151D2E"/>
<path transform="translate(68,70)" d="m0 0 5 1 19 19 1 4-7 8-14 14-5-1-3-3-8-4v-3l-3-3-6-3-1-2h2l-1-6z" fill="#0749B9"/>
<path transform="translate(1110,519)" d="m0 0h10l6 4 4 6 2 13-2 11-4 7-5 3-7 1-9-3-4-5-3-9v-12l3-9 6-6z" fill="#141D2D"/>
<path transform="translate(1015,519)" d="m0 0h10l6 4 4 6 2 13-2 11-4 7-5 3-7 1-9-3-4-5-3-9v-12l3-9 6-6z" fill="#141D2D"/>
<path transform="translate(574,117)" d="m0 0h8l5 18 3 14 4-15 4-16 1-1h8l5 18 3 13h1l6-26 2-5h8l-4 17-7 26-1 1h-9l-7-26-1-5-8 31h-10l-11-41z" fill="#161E2F"/>
<path transform="translate(928,513)" d="m0 0 4 1v5l7 1 5 4 2 7h-8l-3-4-3-1v12l6 1 7 5 1 2v10l-4 5-9 3-1 5h-4l-1-5-9-3-4-5-1-6h8l3 5 4 2v-13l-9-3-4-4-1-8 3-5 5-4 6-1z" fill="#182131"/>
<path transform="translate(1286,908)" d="m0 0h248v4h-248z" fill="#0179FE"/>
<path transform="translate(993,128)" d="m0 0h7l1 4 5-4h8l6 4 3 6v13l-3 6-5 4-6 1-7-3-1-2-1 16h-7z" fill="#057AFE"/>
<path transform="translate(862,117)" d="m0 0h19l8 3 4 5 1 10-3 6-4 4-3 1h-14v15h-8z" fill="#087BFE"/>
<path transform="translate(757,128)" d="m0 0h7l1 4 5-4h7l5 5 6-5h9l5 5 1 2v26h-8l-1-24-2-2-6 1-1 1-1 24h-8l-1-24-2-2-6 1-1 1-1 24h-8z" fill="#172031"/>
<path transform="translate(932,128)" d="m0 0h10l7 4 3 5 1 4v8l-4 8-5 4-9 1-7-3-5-5-1-3v-12l3-6 5-4z" fill="#077BFE"/>
<path transform="translate(730,128)" d="m0 0h10l6 4 3 4 1 3v12l-4 7-5 3-8 1-7-2-5-6-2-5v-8l3-7 5-5z" fill="#151E2E"/>
<path transform="translate(820,128)" d="m0 0h9l6 3 4 5 1 4v7h-23l3 6 4 2 6-1 2-2h6l1 3-5 5-6 2-9-1-6-4-3-6v-12l3-6 5-4z" fill="#161F30"/>
<path transform="translate(1039,128)" d="m0 0h9l6 3 4 6 1 10h-23l2 7 8 1 5-3 7 1-2 4-5 4-9 1-8-3-4-5-2-7 1-9 4-6z" fill="#097CFE"/>
<path transform="translate(644,128)" d="m0 0h9l7 4 3 6v9h-22l2 6 4 2 7-1 1-2h6l2 2-5 6-7 2-9-1-7-6-2-6v-8l3-7 5-5z" fill="#161F30"/>
<path transform="translate(576,726)" d="m0 0h17l5 3 3 4v8l-3 5-2 2 6 11v2h-7l-6-11v-2h-7v13h-6z" fill="#131C2C"/>
<path transform="translate(205,74)" d="m0 0 9 1h2 6v10h-6l-1-6h-10l-2 2 1 5 12 4 5 3 2 5-1 7-4 5-10 2-7-3v2h-6v-10l1-1h5l2 6 9 1 3-2v-5l-8-3-7-3-4-5v-8l4-5z" fill="#052756"/>
<path transform="translate(959,735)" d="m0 0h11l5 4 2 4v10l-4 6-3 2h-11l-5-4-2-5v-8l3-6z" fill="#161F30"/>
<path transform="translate(967,128)" d="m0 0h10l6 3 2 5-1 1h-6l-2-2h-8l1 5 13 4 4 4v6l-5 6-7 2-9-1-6-5-1-4 7-1 4 4h6l2-1v-4l-15-5-3-4v-6l5-6z" fill="#087BFE"/>
<path transform="translate(169,83)" d="m0 0h2l1 3 4-3 9 1 3 5v19h3v3h-14v-3h3l-1-18-4-1-3 2v16l2 1v3h-14v-3h3v-19l-3-1v-3z" fill="#082856"/>
<path transform="translate(91,287)" d="m0 0 6 1 14 11 2 3v22l-4 4h-32l-4-4v-22l4-5zm1 4-14 11-1 1v20l1 1h30l1-1v-20l-13-11z" fill="#F7FAFD"/>
<path transform="translate(102,567)" d="m0 0 6 1 5 5v11l-3 3-8 1-1 20-3 1-6-3-5 4-5-3h-3l-5 2-2-2v-35l4-4zm-25 3-3 3v33l5-2 4 1 2 2 4-1 2-2 5 1 3 1v-36z" fill="#475467"/>
<path transform="translate(695,128)" d="m0 0h10l6 4 3 6-2 1h-6l-3-4h-6l-3 3-1 2v9l3 5h8l3-4 7 1-2 5-4 4-6 2-9-1-6-5-3-7v-8l3-7 5-5z" fill="#161F2F"/>
<path transform="translate(111,75)" d="m0 0h29v9h-6v-6l-10 1-1 12h7v-3h4v10h-4v-3h-7l1 12 4 1v3h-17v-3l3-1 1-29h-4z" fill="#012353"/>
<path transform="translate(1073,525)" d="m0 0 6 1 4 5 1 4v12l-3 7-3 3h-6l-5-6-1-4v-11l3-8z" fill="#F9FBFD"/>
<path transform="translate(1113,525)" d="m0 0 6 1 4 6 1 5v8l-3 9-3 3h-6l-4-4-2-5v-14l3-6z" fill="#F9FBFD"/>
<path transform="translate(1018,525)" d="m0 0 6 1 4 6 1 5v8l-3 9-3 3h-6l-4-4-2-5v-14l3-6z" fill="#F9FBFD"/>
<path transform="translate(323,83)" d="m0 0 9 1 5 5 1 2v6h-17l2 7 3 2 6-1 2-2h3l-1 4-3 3-9 2-7-3-3-4-1-3v-10l4-6z" fill="#042658"/>
<path transform="translate(913,365)" d="m0 0h14l4 3v7l-3 2 4 3v7l-3 3-2 1h-14z" fill="#172031"/>
<path transform="translate(237,83)" d="m0 0 9 1 6 5 1 8h-17l1 8 7 1 5-3h3l-1 4-5 4-7 1-7-3-4-6v-12l6-7z" fill="#042658"/>
<path transform="translate(790,735)" d="m0 0h11l4 4 1 2v20h-6l-1-2-2 2h-10l-4-5 1-7 5-3 10-2v-4h-6l-3 2h-5v-3l3-3z" fill="#172030"/>
<path transform="translate(612,735)" d="m0 0h10l5 3 2 4v8h-18l3 5 6 1 3-2h6l-2 4-4 3h-11l-5-4-2-5v-8l3-6z" fill="#1A2233"/>
<path transform="translate(669,735)" d="m0 0h10l5 4 2 10-1 1-17 1 2 4 6 1 3-2h6l-2 5-3 2h-11l-5-3-3-8 1-8 3-5z" fill="#1A2333"/>
<path transform="translate(873,735)" d="m0 0h11l5 5v21h-5v-3h-2v2l-7 2-7-3-1-2v-7l3-3 9-2h4l-2-5h-5l-2 2h-5v-4z" fill="#161F2F"/>
<path transform="translate(961,519)" d="m0 0h9v44h-7v-36l-9 6h-2v-7z" fill="#121A2B"/>
<path transform="translate(987,519)" d="m0 0h8v44h-7v-36l-9 6h-2v-7z" fill="#131B2C"/>
<path transform="translate(200,424)" d="m0 0h13l3 3v6l-2 2 3 3v6l-5 3h-12z" fill="#374457"/>
<path transform="translate(691,735)" d="m0 0h5l2 2 2-2h9l4 4 1 4v18h-6l-1-17-2-3h-6l-1 2-1 18h-6z" fill="#171F30"/>
<path transform="translate(670,117)" d="m0 0h7l1 1v43h-8z" fill="#172030"/>
<path transform="translate(983,735)" d="m0 0h5l1 3 3-3h9l4 5v21h-6l-1-19-1-1h-6l-1 1-1 19h-6z" fill="#172030"/>
<path transform="translate(813,735)" d="m0 0h5l1 3 3-3h9l4 5v21h-6l-1-19-1-1h-6l-1 1-1 19h-6z" fill="#172030"/>
<path transform="translate(143,424)" d="m0 0h7l6 16 5-15 1-1h6v23h-4l-1-14-5 14h-4l-6-16-1 16h-4z" fill="#364356"/>
<path transform="translate(819,1079)" d="m0 0 6 1 4 5 1 9-3 7-2 2h-8l-4-5-1-8 2-7z" fill="#0B7CFE"/>
<path transform="translate(799,1079)" d="m0 0 5 1 4 4 1 3v9l-3 5-2 2h-7l-4-4-1-2v-11l3-5z" fill="#0B7CFE"/>
<path transform="translate(770,1079)" d="m0 0 6 1 4 5v13l-4 5h-8l-4-5-1-3v-7l3-7z" fill="#0B7CFE"/>
<path transform="translate(1065,128)" d="m0 0h7l2 3 4-3h6v7l-9 2-1 2-1 22h-8z" fill="#0B7DFE"/>
<path transform="translate(934,1029)" d="m0 0 6 2 1-2 5 1v18l-3 5-9 1-4-2v-3h10v-4l-2 2-6-1-3-3-1-5 2-6z" fill="#1251BB"/>
<path transform="translate(282,84)" d="m0 0h14v3h-3l5 13v3h2l2-10 2-6h-3v-3h10v3h-3l-1 6-7 18h-7l-8-22v-2h-3z" fill="#052656"/>
<path transform="translate(1016,735)" d="m0 0h11l5 4-1 3h-5v-2h-6l-2 1 1 3 10 3 4 4v5l-4 4-2 1h-11l-5-4v-3l5-1 3 3 7-1-1-3-10-3-4-5 1-6z" fill="#172030"/>
<path transform="translate(846,735)" d="m0 0h11l5 4-1 3h-5v-2h-6l-2 1 1 3 10 3 4 4v5l-4 4-2 1h-11l-5-4v-3l5-1 3 3 7-1-1-3-10-3-4-5 1-6z" fill="#172030"/>
<path transform="translate(266,83)" d="m0 0h2l1 3 3-3h5l3 3v5l-3 2-4-1-2-4-2 2-1 18h4v3h-15v-3h3v-19l-3-1v-3z" fill="#012250"/>
<path transform="translate(1016,365)" d="m0 0h6l4 9 5 14v3h-5l-2-6h-9l-3 6h-5l8-24z" fill="#161E2F"/>
<path transform="translate(1082,371)" d="m0 0h6l5 4 1 2v8l-3 5-2 1h-8l-5-4-1-8 3-6z" fill="#1A2333"/>
<path transform="translate(901,128)" d="m0 0h7l1 3 4-3h6v7l-9 1-1 4-1 21h-7z" fill="#057AFE"/>
<path transform="translate(641,735)" d="m0 0h10l5 4 1 4-6 1-4-4-5 1-1 2v10l1 2 5 1 4-4 6 1-2 5-4 3h-10l-5-3-3-8 1-8 3-5z" fill="#172030"/>
<path transform="translate(784,1024)" d="m0 0h5v23h-5-2-6l-4-5v-7l3-5 6-1 2 1z" fill="#0F4BB1"/>
<path transform="translate(76,1065)" d="m0 0h19v5h-13v8h12v5h-12v11h-6z" fill="#374357"/>
<path transform="translate(902,735)" d="m0 0h10l6 5v3l-5 1-2-3-5-1-4 4v8l4 4 5-1 2-3 5 1-1 4-5 4h-10l-6-5-1-2v-12l5-6z" fill="#151E2F"/>
<path transform="translate(716,1024)" d="m0 0h14l4 5-1 7-3 3-8 1-1 7h-5z" fill="#124CAE"/>
<path transform="translate(88,415)" d="m0 0h10l8 4 6 7 2 5v10l-4 8-7 6-5 2h-10l-7-3-5-5-4-8v-10l5-10 8-5zm2 2-8 3-6 7-2 5v7l3 8 7 6 6 2 10-1 8-6 3-5 1-10-3-7-4-5-5-3z" fill="#475467"/>
<path transform="translate(934,134)" d="m0 0h6l4 4 1 2v10l-4 5h-8l-3-4-1-9 3-6z" fill="#F8FBFD"/>
<path transform="translate(732,134)" d="m0 0h6l4 5 1 8-3 7-1 1h-8l-3-3-1-3v-9l3-5z" fill="#F9FBFD"/>
<path transform="translate(84,842)" d="m0 0h21v2l-19 1-3 3-1 4h23v2h-23l1 18 3 3h30l3-3 1-13h2v15l-5 4h-33l-4-4v-28z" fill="#475467"/>
<path transform="translate(350,728)" d="m0 0h4v23l-5-1-1 1h-6l-4-5v-7l3-5 5-1 3 2z" fill="#374357"/>
<path transform="translate(143,296)" d="m0 0h5v9h10v-9h5v23h-5v-10h-10v10h-5z" fill="#EBF5FD"/>
<path transform="translate(1e3 134)" d="m0 0 7 1 3 4 1 6-2 7-3 3h-7l-3-3-1-3v-8l3-6z" fill="#F7FBFD"/>
<path transform="translate(724,1076)" d="m0 0 2 1v3l5 1 2 5h-4l-3-3v7l6 2 1 2v6l-4 3h-3v3h-2l-1-2-6-3-1-5 4 1v2l4 1-1-7-5-3-1-1v-6l3-3 3-1z" fill="#2C8EFE"/>
<path transform="translate(846,204)" d="m0 0h7 2 3v19l-3 4-7 1-4-2 1-3 6 2 3-1v-5l-1 1h-7l-3-3v-9z" fill="#475467"/>
<path transform="translate(291,848)" d="m0 0h3l1 7 5-2 5 3 2 4-1 8-3 3h-6l-3-2v2h-3z" fill="#364256"/>
<path transform="translate(187,301)" d="m0 0h3l1 2 3-2 4 1h4l5-1 4 4v14h-4l-1-13h-4l-1 13h-4l-1-14-4 1-1 13h-5v-17z" fill="#F0F7FD"/>
<path transform="translate(176,83)" d="m0 0 9 1 3 5v19h3v3h-14v-3h3l-1-18-6-2z" fill="#062755"/>
<path transform="translate(750,729)" d="m0 0h6v6h5v5h-5l1 15 4 1 1 5h-8l-3-2-1-3v-16l-4-1v-4h4z" fill="#172030"/>
<path transform="translate(721,729)" d="m0 0h6v6h5v5h-5l1 15 4 1 1 5h-8l-3-2-1-3v-16l-4-1v-4h4z" fill="#172030"/>
<path transform="translate(925,729)" d="m0 0h6v6h5l-1 5h-4v16h5v5h-8l-3-3v-18h-4v-5h4z" fill="#161F2F"/>
<path transform="translate(1095,458)" d="m0 0h11l2 2v6 3l1 1v5l-4 3h-10z" fill="#475467"/>
<path transform="translate(941,371)" d="m0 0h6l4 2 1 2v16l-5-1-1 1h-8l-3-4 1-5 7-3 4-2v-2l-10 2v-3z" fill="#192232"/>
<path transform="translate(172,301)" d="m0 0 7 1 4 5-1 9-3 3h-9l-3-3-1-9 4-5z" fill="#F0F7FD"/>
<path transform="translate(152,83)" d="m0 0h2v25h3v3h-14v-3h3v-19l-3-1v-3z" fill="#012250"/>
<path transform="translate(979,365)" d="m0 0h5l1 13 6-7h5l-3 5-3 3 2 4 5 8h-6l-5-7h-1l-1 7h-5z" fill="#1D2738"/>
<path transform="translate(809,1023)" d="m0 0 7 1 4 4 1 4h-5l-2-3h-6l-2 3v7l3 3h6l1-3h5l-2 5-4 3h-9l-5-5-1-2v-9l4-6z" fill="#104DB6"/>
<path transform="translate(1147,198)" d="m0 0h2v23h-2l-1-2-2 2h-6l-4-5v-7l2-4 2-1h7l1 1z" fill="#475467"/>
<path transform="translate(744,198)" d="m0 0h2v23h-2l-1-2-2 2h-6l-4-5v-7l2-4 2-1h7l1 1z" fill="#475467"/>
<path transform="translate(247,1091)" d="m0 0h11l5 5 1 2v8l-2 3h-5-3-5l-2-2v-8l2-2h8l1 11h3v-10l-3-4-8-1-5 3-1 2v10l4 4 6 1h5l-1 2h-10l-5-3-2-4v-10l3-5z" fill="#475467"/>
<path transform="translate(181,853)" d="m0 0 7 2 2 3v9l-4 4h-7l-5-5v-7l4-5z" fill="#374357"/>
<path transform="translate(209,605)" d="m0 0 7 2 2 3v9l-4 4h-7l-5-5v-7l4-5z" fill="#374357"/>
<path transform="translate(292,557)" d="m0 0 7 2 2 3v9l-4 4h-7l-5-5v-7l4-5z" fill="#374357"/>
<path transform="translate(870,124)" d="m0 0h11l5 5-1 8-5 3h-10z" fill="#F8FBFD"/>
<path transform="translate(142,600)" d="m0 0h4v9h11v-9h4v23h-4v-10h-11v10h-4z" fill="#354155"/>
<path transform="translate(1505,867)" d="m0 0h6 2 3v18l-4 3h-6l-3-2v-2l7 1 2-1v-3l-5 1-5-5v-6z" fill="#0D7DFE"/>
<path transform="translate(824,1024)" d="m0 0h5l1 7 2-2 6 1 2 2v15h-5v-13l-5 1-1 12h-5z" fill="#1349A6"/>
<path transform="translate(88,719)" d="m0 0h6v2l-10 3-6 5-3 7v7l3 8 8 6 9 1 7-2 5-4 3-5 2-8h2l-1 9-4 6-6 5-5 2h-10l-7-3-5-5-4-8v-10l5-10 8-5z" fill="#475467"/>
<path transform="translate(911,204)" d="m0 0h8l3 3 1 7-3 6-2 1h-6l-4-3-1-9z" fill="#F8FBFD"/>
<path transform="translate(92,423)" d="m0 0h2l1 2 5 3 1 4-3-1-1-2-3-1 1 7 5 3 1 5-2 3-4 1-1 2h-2l-1-2-5-3-1-4 3 1 1 2 3 1-1-7-5-2-1-6 2-3 4-1z" fill="#677485"/>
<path transform="translate(1297,204)" d="m0 0h8l3 3 1 2v7l-4 5h-7l-4-4v-9z" fill="#F6FAFD"/>
<path transform="translate(850,1029)" d="m0 0 6 1 4 4v6l-11 1v2h5l5-1v3l-3 2h-8l-4-4-1-6 3-6z" fill="#2560C1"/>
<path transform="translate(1025,204)" d="m0 0h7l4 4v9l-4 4h-7l-4-5v-7l2-4z" fill="#F6FAFD"/>
<path transform="translate(882,1024)" d="m0 0h5l1 10 5-5h4l-2 5-2 4 5 9h-6l-3-5-2-1v6h-5z" fill="#104CB2"/>
<path transform="translate(628,1033)" d="m0 0h17v2l-17 1-2 5h19v2h-19l1 15 1 2h29l1-13 2 1v8l-2 6-2 1h-28l-3-3-1-3v-19l2-4z" fill="#475467"/>
<path transform="translate(750,1029)" d="m0 0 8 1 2 3v14l-5-1-1 1h-7l-2-2v-6l3-2 7-1v-3l-5 2-5-1z" fill="#275FBC"/>
<path transform="translate(1379,862)" d="m0 0h3v20l-4-1-1 1h-6l-3-3v-9l3-3h6l1 1z" fill="#1781FE"/>
<path transform="translate(271,1095)" d="m0 0h5l3 2v-2h2v16l-2 4-2 1h-6l-3-3 2-1 7 1v-4l-4 1-5-3-1-6 2-5z" fill="#475467"/>
<path transform="translate(188,1050)" d="m0 0h3v20l-4-1-1 1h-6l-3-4v-7l3-4h6l1 1z" fill="#384558"/>
<path transform="translate(778,734)" d="m0 0 3 1v5l-7 2-1 2-1 17h-6v-26h6l1 2z" fill="#192132"/>
<path transform="translate(1120,371)" d="m0 0h4l2 2 2-2 7 1 2 3v16h-4l-1-14-5-1-1 1-1 14h-5z" fill="#212A3C"/>
<path transform="translate(1098,371)" d="m0 0 5 1 1 14h5l1-1 1-14h4v20h-4l-1-2-2 2h-6l-3-2-1-3z" fill="#202A3B"/>
<path transform="translate(68,70)" d="m0 0 5 1 10 10v2l-6 1v-3l-8 2h-12l2-4z" fill="#002457"/>
<path transform="translate(169,1090)" d="m0 0h3v20h-2v-2l-3 2h-5l-3-3-1-6 2-5 7-1 1 1z" fill="#475467"/>
<path transform="translate(910,1029)" d="m0 0 4 1h2l5-1 4 3v15h-5v-13l-5 1-1 12h-5v-17z" fill="#1352BC"/>
<path transform="translate(221,301)" d="m0 0 6 1 3 3 1 6h-12l2 4 9-1-1 4-2 1h-8l-4-4v-9l3-4z" fill="#F2F8FD"/>
<path transform="translate(317,853)" d="m0 0 6 2 2 3v13l-5-1-1 1h-7l-2-2v-6l3-2 8-1-2-3-8 1 2-4z" fill="#384458"/>
<path transform="translate(957,371)" d="m0 0h4l1 2 3-2 7 1 2 3v16h-4l-1-12-1-3h-6l-1 15h-4z" fill="#151E2E"/>
<path transform="translate(181,733)" d="m0 0 7 2 1 2v14l-5-1-1 1h-6l-3-3 1-5 3-2 6-1 1-3-10 1 2-4z" fill="#364256"/>
<path transform="translate(235,557)" d="m0 0 7 2 1 2v14l-5-1-1 1h-6l-3-3 1-5 3-2 6-1 1-3-10 1 2-4z" fill="#364256"/>
<path transform="translate(227,429)" d="m0 0 7 2 1 2v14l-5-1-1 1h-6l-3-3 1-5 3-2 6-1 1-3-10 1 2-4z" fill="#364256"/>
<path transform="translate(1321,862)" d="m0 0h11l3 3v6l-4 4h-7v7h-3z" fill="#1380FE"/>
<path transform="translate(157,848)" d="m0 0h9l4 4 1 3-5-1-2-2-7 1-1 2v9l4 3 5-1 2-3h4l-2 5-4 3h-8l-5-5-1-2v-10l4-5z" fill="#374357"/>
<path transform="translate(56,82)" d="m0 0 11 1 1 4-9 8-4 2h-6l-2-2 1-5z" fill="#0647B6"/>
<path transform="translate(581,198)" d="m0 0h4l7 18 1 5h-3l-2-6h-9l-3 6-3-1z" fill="#475467"/>
<path transform="translate(240,853)" d="m0 0 6 2 3 5v3h-12l2 4h5 4l-1 3-2 1h-8l-4-5v-8l4-4z" fill="#374357"/>
<path transform="translate(1159,371)" d="m0 0h6l4 2 1 3-4 1-1-1h-5v2l9 3 1 1v6l-3 3h-9l-4-3v-2l4-1 2 2h6l-2-3-8-3-2-5z" fill="#1A2334"/>
<path transform="translate(180,557)" d="m0 0 6 2 1 1v15l-4-1-2 1h-6l-2-2v-6l3-2 6-1v-3l-9 1 3-4z" fill="#364256"/>
<path transform="translate(249,733)" d="m0 0 6 2 2 3v5l-11 1 1 3h5l4-1v3l-2 2h-8l-4-4v-9l3-4z" fill="#374357"/>
<path transform="translate(964,739)" d="m0 0 5 2 2 4-1 9-4 3-6-2-2-4v-6l3-5z" fill="#F7FAFD"/>
<path transform="translate(259,424)" d="m0 0h4l1 11 5-5 4 1-4 5 1 4 4 5v2l-5-1-4-5-2-1v7h-4z" fill="#354155"/>
<path transform="translate(1061,371)" d="m0 0h6l5 4-1 3-4-1-1-1h-5l-1 2v7l2 2h5l1-3 4 1-2 5-2 1h-8l-5-4-1-8 3-6z" fill="#1A2334"/>
<path transform="translate(1040,371)" d="m0 0h6l5 4-1 3-4-1-1-1h-5l-1 2v7l2 2h5l1-3 4 1-2 5-2 1h-8l-5-4-1-8 3-6z" fill="#1A2334"/>
<path transform="translate(349,848)" d="m0 0h4l1 11 5-5 4 1-4 5 1 4 4 7h-5l-4-6-2-1v7h-4z" fill="#374357"/>
<path transform="translate(931,463)" d="m0 0h7l3 3 1 6-3 5-1 1h-6l-4-4v-7z" fill="#475467"/>
<path transform="translate(366,1095)" d="m0 0h7l3 4v7l-4 4-7-1-2-2v-9z" fill="#F7FAFD"/>
<path transform="translate(1188,204)" d="m0 0h8l3 3v14l-4-1-1 1h-6l-3-3 1-5 3-2 6-1v-3h-6l-3 1z" fill="#475467"/>
<path transform="translate(1100,204)" d="m0 0h8l3 3v14l-4-1-1 1h-6l-3-3 1-5 3-2 6-1v-3h-6l-3 1z" fill="#475467"/>
<path transform="translate(969,204)" d="m0 0h8l3 3v14l-4-1-1 1h-6l-3-3 1-5 3-2 6-1v-3h-6l-3 1z" fill="#475467"/>
<path transform="translate(282,728)" d="m0 0h15v3h-11v7h9v4h-9v9h-4z" fill="#364256"/>
<path transform="translate(1242,204)" d="m0 0h8l3 5v12l-4-1-1 1h-6l-3-2v-5l4-3 6-1v-3h-6l-3 1z" fill="#475467"/>
<path transform="translate(697,204)" d="m0 0h8l3 5v12l-4-1-1 1h-6l-3-2v-5l4-3 6-1v-3h-6l-3 1z" fill="#475467"/>
<path transform="translate(869,1029)" d="m0 0 7 1 3 5-5 1-1-2h-4l-1 6 2 3h4v-2h5l-2 5-2 1h-8l-4-4-1-6 3-6z" fill="#124FB6"/>
<path transform="translate(828,204)" d="m0 0h8l2 3v14h-2v-2l-3 2h-6l-3-4 2-5 9-2v-4l-10 2 1-3z" fill="#475467"/>
<path transform="translate(791,204)" d="m0 0h8l2 3v14h-2v-2l-3 2h-6l-3-4 2-5 9-2v-4l-10 2 1-3z" fill="#475467"/>
<path transform="translate(203,853)" d="m0 0 5 2 1 1v15h-4l-1-13-5 1-1 12h-4v-17l5 1z" fill="#384558"/>
<path transform="translate(941,735)" d="m0 0h6v26h-6z" fill="#192232"/>
<path transform="translate(328,733)" d="m0 0 5 2 1 1v15h-4l-1-13-5 1-1 12h-4v-17l5 1z" fill="#384558"/>
<path transform="translate(202,733)" d="m0 0 5 2 1 1v15h-4l-1-13-5 1-1 12h-4v-17l5 1z" fill="#384558"/>
<path transform="translate(314,557)" d="m0 0 5 2 1 1v15h-4l-1-13-5 1-1 12h-4v-17l5 1z" fill="#384558"/>
<path transform="translate(172,430)" d="m0 0h4l3 8v4h2l2-9 1-3h4l-1 6-6 15-5 3-3-1 1-3 3-1-2-9z" fill="#374357"/>
<path transform="translate(1199,365)" d="m0 0h6v26h-5v-21l-6 3 1-5z" fill="#1A2334"/>
<path transform="translate(866,204)" d="m0 0h8l3 4v5h-12l1 4 7 1 4-1-4 4h-6l-4-3-1-9z" fill="#475467"/>
<path transform="translate(1436,204)" d="m0 0h8l3 3v6h-12l1 5h7l4-1-3 4h-7l-4-4-1-6 2-5z" fill="#475467"/>
<path transform="translate(1361,204)" d="m0 0h8l3 3 1 6h-13l3 5h5l4-1-1 3-2 1h-7l-4-4v-9z" fill="#475467"/>
<path transform="translate(636,204)" d="m0 0h8l3 3 1 6h-13l3 5h5l4-1-1 3-2 1h-7l-4-4v-9z" fill="#475467"/>
<path transform="translate(337,853)" d="m0 0 6 2 1 2v14h-4l-1-13h-5l-1 13h-4v-17l5 1z" fill="#394559"/>
<path transform="translate(222,853)" d="m0 0 6 2 1 2v14h-4l-1-13h-5l-1 13h-4v-17l5 1z" fill="#394559"/>
<path transform="translate(200,557)" d="m0 0 6 2 1 2v14h-4l-1-13h-5l-1 13h-4v-17l5 1z" fill="#394559"/>
<path transform="translate(234,606)" d="m0 0h4l4 11 5-11 4 1-8 20-5 3-3-2 1-2h4l-4-13z" fill="#374357"/>
<path transform="translate(81,93)" d="m0 0 1 4-2 7-3-1-8 7-2 1h-6l-5-3 3-2 8-1 7-8-2-1z" fill="#0479FC"/>
<path transform="translate(818,1083)" d="m0 0h6l2 4v9l-3 4-5-1-2-4v-8z" fill="#F6FAFD"/>
<path transform="translate(798,1083)" d="m0 0h5l2 3v11l-2 3h-5l-2-2-1-9 2-5z" fill="#F7FAFD"/>
<path transform="translate(197,1055)" d="m0 0h8l2 2v13l-4-1-1 1h-6l-2-3 1-4 3-2 5-1-1-2-7 1z" fill="#364256"/>
<path transform="translate(92,730)" d="m0 0h2v2l4 1 1 5h-2l-1-3-2-1 1 5 4 2v5l-2 2h-3v2h-2v-2l-4-1-1-5h2l1 3 2 1-1-5-4-3 1-5 4-1z" fill="#5B697C"/>
<path transform="translate(769,1083)" d="m0 0h5l3 5v7l-3 5-5-1-2-3v-10z" fill="#F7FAFD"/>
<path transform="translate(300,734)" d="m0 0h3l1 11 1 2h4l1-2 1-11h4v17h-4l-1-2-2 2-7-1-1-1z" fill="#374357"/>
<path transform="translate(248,429)" d="m0 0 5 2 2 4v12h-4l-1-12-5-1-1 2-1 11h-3v-17l4 1z" fill="#384558"/>
<path transform="translate(582,731)" d="m0 0h8l4 2 1 6-4 4h-9z" fill="#F7FAFD"/>
<path transform="translate(217,557)" d="m0 0 7 2 1 3-10-1 2 3 7 2 1 1v6l-3 2h-8l-3-3v-2h4v2h6l-1-3-8-3-1-5 3-3z" fill="#374457"/>
<path transform="translate(283,429)" d="m0 0 6 2 2 3-9-1-1 3 9 2 1 1v5l-3 3h-8l-3-2v-3l9 1v-2l-8-3-1-5 3-3z" fill="#374357"/>
<path transform="translate(142,728)" d="m0 0h19v3h-7v20h-4l-1-19-7-1z" fill="#374357"/>
<path transform="translate(1143,367)" d="m0 0h4v4h4v4h-4l1 11 3 1 1 4h-7l-2-2v-14h-3v-4h3z" fill="#171F30"/>
<path transform="translate(1400,861)" d="m0 0 6 1 4 4v2l-4-1-2-2-6 1-1 2v10h8l2-3h3l-2 5-3 2h-7l-5-5v-10l4-5z" fill="#1480FE"/>
<path transform="translate(365,733)" d="m0 0 6 2 1 3-8-1-1 2 9 4 1 4-4 4h-8l-3-3v-2l10 1v-2l-8-3-1-1v-5l2-2z" fill="#384458"/>
<path transform="translate(1348,867)" d="m0 0h7l2 2v13h-10l-2-2v-5l3-2h6l-1-3-7 1v-3z" fill="#66ACFE"/>
<path transform="translate(1433,867)" d="m0 0h7l3 3 1 5h-11l2 4 8-1-2 4h-7l-4-4v-7z" fill="#3994FE"/>
<path transform="translate(219,733)" d="m0 0 6 2 1 3-8-1-1 3 8 2 2 2-1 5-3 2h-7l-3-2v-3l9 1v-2l-8-3-1-1v-5l2-2z" fill="#374357"/>
<path transform="translate(180,605)" d="m0 0 6 2 1 3-8-1-1 3 8 2 2 2-1 5-3 2h-7l-3-2v-3l9 1v-2l-8-3-1-1v-5l2-2z" fill="#374357"/>
<path transform="translate(141,552)" d="m0 0h18v3h-7v20h-4v-20h-7z" fill="#344054"/>
<path transform="translate(143,1050)" d="m0 0h13v3h-9v6h8v3h-8v8h-4z" fill="#384458"/>
<path transform="translate(259,853)" d="m0 0 7 2 1 4h-4v-2h-6v9l5 1 4-2v4l-2 2h-8l-4-5v-8l4-4z" fill="#374357"/>
<path transform="translate(254,557)" d="m0 0 7 2 1 4h-4v-2h-6v9l5 1 4-2v4l-2 2h-8l-4-5v-8l4-4z" fill="#374357"/>
<path transform="translate(1047,463)" d="m0 0h7l3 3v5h-10l2 4 8-1-1 3-2 1h-6l-4-4v-7z" fill="#475467"/>
<path transform="translate(1188,463)" d="m0 0h6l3 2 1 6h-11l2 4 8-1-1 3-2 1h-6l-4-5 1-7z" fill="#475467"/>
<path transform="translate(65,89)" d="m0 0 5 1 2-1 2 1-1 3h-3l-8 7-9 2-6-3-1-2 3-1h6l9-6z" fill="#057AFE"/>
<path transform="translate(234,727)" d="m0 0h6v3h-4v4h3v3h-3v14h-4v-14h-3v-3l2-1 2-5z" fill="#374457"/>
<path transform="translate(1138,463)" d="m0 0h7l2 2v13h-4-6l-2-2 1-5 8-3v-2h-5-3z" fill="#475467"/>
<path transform="translate(1115,463)" d="m0 0h7l2 2v13h-4-6l-2-2 1-5 8-3v-2h-5-3z" fill="#475467"/>
<path transform="translate(957,463)" d="m0 0h7l2 2v13h-4-6l-2-2 1-5 8-3v-2h-5-3z" fill="#475467"/>
<path transform="translate(312,1095)" d="m0 0h7l2 3v12h-4-6l-2-2 1-5 8-3v-2l-6-1-1 2-1-3z" fill="#475467"/>
<path transform="translate(103,570)" d="m0 0 6 1 2 3v9l-2 2h-7v-14z" fill="#F4F9FD"/>
<path transform="translate(145,1095)" d="m0 0h7l2 2v13h-4l-7-1-1-4 2-3 8-1-1-3h-5-3z" fill="#475467"/>
<path transform="translate(209,1055)" d="m0 0h4l4 9 4-9h3l-3 10-4 9-3 2h-3v-3l3-1-1-6z" fill="#374457"/>
<path transform="translate(990,458)" d="m0 0h8l4 4v2h-3l-3-3-6 1-1 2v10l6 1 4-3h3l-2 4-3 2h-6l-5-4-1-2v-8l3-5z" fill="#475467"/>
<path transform="translate(1414,862)" d="m0 0h3l1 5h6l3 5v10h-3l-1-10-1-2-4 1-1 11h-3z" fill="#1881FE"/>
<path transform="translate(737,1024)" d="m0 0h5v23h-5z" fill="#1349A6"/>
<path transform="translate(1463,862)" d="m0 0h3l1 10 5-5 3 1-4 5 4 7 1 2h-4l-4-6h-1l-1 6h-3z" fill="#057AFE"/>
<path transform="translate(927,204)" d="m0 0h3l1 13 5 1 1-1 1-13h3v17l-4-1-7 1-3-4z" fill="#475467"/>
<path transform="translate(740,1080)" d="m0 0h6v23h-4l-1-19-2 2h-3l2-4z" fill="#117FFE"/>
<path transform="translate(1044,557)" d="m0 0h8l-4 15-1 2h-5l1-13z" fill="#151E2E"/>
<path transform="translate(754,1080)" d="m0 0h5v23h-4v-19l-5 2 1-4z" fill="#0F7EFE"/>
<path transform="translate(1204,204)" d="m0 0h2v2l3-2h6l3 4v13h-3l-1-14h-5l-1 1-1 13h-3z" fill="#475467"/>
<path transform="translate(1116,204)" d="m0 0h2v2l3-2h6l3 4v13h-3l-1-14h-5l-1 1-1 13h-3z" fill="#475467"/>
<path transform="translate(192,602)" d="m0 0h4l1 3 3 1-1 3h-3l1 10 3 1v3l-7-1-1-3v-10h-2v-3h2z" fill="#384458"/>
<path transform="translate(267,554)" d="m0 0h4v4h3v3h-3v11h3v3h-5l-2-2v-12l-3-1v-2l2-1z" fill="#384458"/>
<path transform="translate(1139,206)" d="m0 0h5l3 4-1 7-2 2-6-1-1-2v-8z" fill="#F7FAFD"/>
<path transform="translate(736,206)" d="m0 0h5l3 4-1 7-2 2-6-1-1-2v-8z" fill="#F7FAFD"/>
<path transform="translate(911,204)" d="m0 0h8l3 3 1 7-3 6-2 1h-6l-4-3-1-9zm1 2-2 2v8l3 3 5-1 2-2v-7l-2-3z" fill="#475467"/>
<path transform="translate(848,206)" d="m0 0h5l2 2v8l-2 2h-6l-2-3v-6z" fill="#F7FAFD"/>
<path transform="translate(425,1064)" d="m0 0h9v2l-9 1v26l9 1v2h-9l-3-3v-26z" fill="#475467"/>
<path transform="translate(1313,204)" d="m0 0 4 1 1-1h7l2 3v14h-2l-1-12-1-2h-5l-1 1-1 13h-3z" fill="#475467"/>
<path transform="translate(1297,204)" d="m0 0h8l3 3 1 2v7l-4 5h-7l-4-4v-9zm2 2-3 3v6l3 4h5l3-5-1-6-2-2z" fill="#475467"/>
<path transform="translate(806,204)" d="m0 0 4 1 1-1h7l2 3v14h-2l-1-12-1-2h-5l-1 1-1 13h-3z" fill="#475467"/>
<path transform="translate(767,203)" d="m0 0 6 2 6-2 4 3v15h-2l-1-13-6-2-1 15h-2l-1-12-1-2-5-1z" fill="#475467"/>
<path transform="translate(1486,867)" d="m0 0h10l3 5v10h-3l-1-10-1-2-4 1-1 11h-3z" fill="#1480FE"/>
<path transform="translate(1025,204)" d="m0 0h7l4 4v9l-4 4h-7l-4-5v-7l2-4zm1 2-3 4 1 7 2 2h5l3-4-1-7-2-2z" fill="#475467"/>
<path transform="translate(889,204)" d="m0 0h3l4 10v3h2l2-9 2-4 3 1-8 20-2 2h-4v-2l3-1 1-3z" fill="#475467"/>
<path transform="translate(832,1029)" d="m0 0 6 1 2 2v15h-5v-13h-5z" fill="#1352BC"/>
<path transform="translate(1488,204)" d="m0 0h3l4 12 2-3 3-9h3l-3 10-5 12-1 1h-5v-2h4v-6l-5-13z" fill="#475467"/>
<path transform="translate(1040,134)" d="m0 0h7l4 4v4h-15l1-5z" fill="#F0F7FD"/>
<path transform="translate(1082,375)" d="m0 0h5l2 2v8l-3 3-4-1-2-2v-7z" fill="#F7FAFD"/>
<path transform="translate(1128,371)" d="m0 0 7 1 2 3v16h-4l-1-14-5-1v-3z" fill="#141D2D"/>
<path transform="translate(645,134)" d="m0 0h7l4 5v3h-15l1-5z" fill="#F3F9FD"/>
<path transform="translate(1335,204)" d="m0 0h7l2 4-8-1v3l8 3 1 5-3 3h-7l-3-2 1-3 3 2h5v-3l-8-3-1-5z" fill="#475467"/>
<path transform="translate(822,134)" d="m0 0h6l4 4v4h-14l-1-2 3-5z" fill="#F3F9FD"/>
<path transform="translate(272,850)" d="m0 0h3l1 3 3 1v3h-4l1 11h3v3h-5l-2-2v-12h-3v-3l2-1z" fill="#354255"/>
<path transform="translate(444,1070)" d="m0 0 7 6 3 3-2 4-7 7-2-2 6-7h-17v-2h17l-6-8z" fill="#475467"/>
<path transform="translate(671,204)" d="m0 0h8l2 4-9-2 1 4 8 3 1 4-4 4h-7l-2-4 2-1 1 2h7l-1-3-9-4v-5z" fill="#475467"/>
<path transform="translate(654,204)" d="m0 0h8l2 4-9-2 1 4 8 3 1 4-4 4h-7l-2-4 2-1 1 2h7l-1-3-9-4v-5z" fill="#475467"/>
<path transform="translate(1225,204)" d="m0 0h8l2 4h-3v-2l-6 1 1 3 8 3v6l-3 2h-7l-3-4 9 1 1-3-9-4v-5z" fill="#475467"/>
<path transform="translate(910,1029)" d="m0 0 4 1 1 5-1 12h-5v-17z" fill="#174CA6"/>
<path transform="translate(1380,197)" d="m0 0h5v2l-3 1-1 4h4v2h-4v15h-3v-15h-3v-2h3l1-6z" fill="#475467"/>
<path transform="translate(227,1090)" d="m0 0h7l2 2v6l-8 10h9v2h-13l2-5 7-8v-4l-6-1-1 3h-2l2-4z" fill="#475467"/>
<path transform="translate(901,1029)" d="m0 0 5 1v17h-5z" fill="#1558C7"/>
<path transform="translate(765,1029)" d="m0 0h4v18h-5v-17z" fill="#154CAA"/>
<path transform="translate(1450,867)" d="m0 0h7l3 4-3 1-2-2-4 1-1 5 2 3 4-1h4l-3 4h-7l-3-3-1-6 3-5z" fill="#1480FE"/>
<path transform="translate(269,733)" d="m0 0 2 1v3l-5 2-1 12h-4v-17z" fill="#364256"/>
<path transform="translate(230,605)" d="m0 0h2v4l-5 2-1 12h-4v-17l5 1z" fill="#384558"/>
<path transform="translate(169,557)" d="m0 0h2v4l-5 2-1 12h-4v-17l5 1z" fill="#384558"/>
<path transform="translate(1006,463)" d="m0 0h3v12h6l1-12h2v15l-3-1-6 1-3-3z" fill="#475467"/>
<path transform="translate(1452,204)" d="m0 0h4 7l2 2v15h-2l-1-13-1-1h-5l-1 2-1 12h-2z" fill="#475467"/>
<path transform="translate(1261,204)" d="m0 0h8l2 4-2 1-1-2h-6l-1 1v10h6l4-2-1 4-2 1h-6l-4-3-1-9z" fill="#475467"/>
<path transform="translate(713,204)" d="m0 0h4 7l2 2v15h-2l-1-13-1-1h-5l-1 2-1 12h-2z" fill="#475467"/>
<path transform="translate(600,204)" d="m0 0h8l2 4-2 1-1-2h-6l-1 1v10h6l4-2-1 4-2 1h-6l-4-3-1-9z" fill="#475467"/>
<path transform="translate(1410,204)" d="m0 0h8l3 4-10-1-1 2v7l2 2h6v-2h3l-2 4-2 1h-6l-4-4-1-6 2-5z" fill="#475467"/>
<path transform="translate(1060,204)" d="m0 0h4 7l2 2v15h-2l-1-13-1-1h-5l-1 1-1 13h-2z" fill="#475467"/>
<path transform="translate(988,204)" d="m0 0h8l3 4-10-1-1 2v7l2 2h6v-2h3l-2 4-2 1h-6l-4-4-1-6 2-5z" fill="#475467"/>
<path transform="translate(618,204)" d="m0 0h8l3 4-10-1-1 2v7l2 2h6v-2h3l-2 4-2 1h-6l-4-4-1-6 2-5z" fill="#475467"/>
<path transform="translate(203,301)" d="m0 0 6 1 2 3v14h-4l-1-13h-5z" fill="#F6FAFD"/>
<path transform="translate(187,301)" d="m0 0h3l1 4v14h-5v-17z" fill="#EBF5FD"/>
<path transform="translate(313,861)" d="m0 0 3 1v1h5l-1 7-1 1h-7l-2-2v-6z" fill="#384558"/>
<path transform="translate(912,458)" d="m0 0h15v2h-6v18h-3v-18h-6z" fill="#475467"/>
<path transform="translate(1006,204)" d="m0 0h8l3 3-3 1-1-1h-5l-2 2v6l2 3h5l4-2-2 4-1 1h-7l-4-4v-9z" fill="#475467"/>
<path transform="translate(176,565)" d="m0 0 3 1v1h5l-1 7-2 1h-6l-2-2v-6z" fill="#384458"/>
<path transform="translate(1111,371)" d="m0 0h4v20h-4l-1-6z" fill="#131B2B"/>
<path transform="translate(384,1095)" d="m0 0h5 3 6l2 2v13h-2l-1-12h-5l-1 12h-2l-1-12-5-1z" fill="#475467"/>
<path transform="translate(366,1095)" d="m0 0h7l3 4v7l-4 4-7-1-2-2v-9zm1 2-2 2v7l2 2h5l2-3v-6l-2-2z" fill="#475467"/>
<path transform="translate(180,1095)" d="m0 0h5 3 6l2 2v13h-2l-1-12h-5l-1 12h-2l-1-12-5-1z" fill="#475467"/>
<path transform="translate(296,857)" d="m0 0h5l2 3-1 7-5 1-2-1-1-7z" fill="#F5F9FD"/>
<path transform="translate(180,857)" d="m0 0h5l2 4-1 5-2 2-5-1-1-1v-7z" fill="#F7FAFD"/>
<path transform="translate(208,609)" d="m0 0h5l2 4-1 5-2 2-5-1-1-1v-7z" fill="#F7FAFD"/>
<path transform="translate(291,561)" d="m0 0h5l2 4-1 5-2 2-5-1-1-1v-7z" fill="#F7FAFD"/>
<path transform="translate(272,83)" d="m0 0h5l3 3v5l-3 2-4-1-2-4-2 1-2-1 1-4 1 2z" fill="#092C60"/>
<path transform="translate(271,1097)" d="m0 0h6l1 1v8l-2 2-5-1-1-1v-8z" fill="#F7FAFD"/>
<path transform="translate(178,741)" d="m0 0 7 2-1 5-1 3h-6l-3-3 1-5z" fill="#384558"/>
<path transform="translate(232,565)" d="m0 0 7 2-1 5-1 3h-6l-3-3 1-5z" fill="#384558"/>
<path transform="translate(1061,463)" d="m0 0h4 6l2 2v13h-2l-2-12h-4l-1 2-1 10h-2z" fill="#475467"/>
<path transform="translate(224,437)" d="m0 0 7 2-1 5-1 3h-6l-3-3 1-5z" fill="#384558"/>
<path transform="translate(162,1097)" d="m0 0h6l1 2v7l-2 2-5-1-1-1v-7z" fill="#FAFCFD"/>
<path transform="translate(1172,463)" d="m0 0h6l3 3-3 1-5-1-1 1v7l5 1 3-2 1 2-3 3h-6l-3-3-1-2v-6z" fill="#475467"/>
<path transform="translate(344,737)" d="m0 0h5l1 1v8l-2 2-5-1-1-2v-6z" fill="#F8FBFD"/>
<path transform="translate(1471,200)" d="m0 0h3v4h3v2h-3v13l4 1v1h-5l-2-2v-13h-2v-2h2z" fill="#475467"/>
<path transform="translate(1164,200)" d="m0 0h3v4h3v2h-3v13l4 1v1h-5l-2-2v-13h-2v-2h2z" fill="#475467"/>
<path transform="translate(1079,200)" d="m0 0h3v4h3v2h-3v13l4 1v1h-5l-2-2v-13h-2v-2h2z" fill="#475467"/>
<path transform="translate(84,316)" d="m0 0h18v4h-18z" fill="#F7FAFD"/>
<path transform="translate(172,305)" d="m0 0h5l2 4-1 5-2 2-5-1-1-6z" fill="#0C7DFE"/>
<path transform="translate(285,1095)" d="m0 0h4 5l3 2-1 13h-2l-1-12h-4l-1 2-1 10h-2z" fill="#475467"/>
<path transform="translate(933,465)" d="m0 0 5 1 1 7-2 3-5-1-2-5z" fill="#F6FAFD"/>
<path transform="translate(1391,197)" d="m0 0h5v2h-4v4l3 1v2h-4v15h-2v-15h-3v-2l2-1 2-5z" fill="#475467"/>
<path transform="translate(73,81)" d="m0 0 4 1-2 8-7 1-2-1 1-4-2-2z" fill="#0556CB"/>
<path transform="translate(170,733)" d="m0 0h2v4l-4 1-1 2-1 11h-3v-17l4 1z" fill="#354155"/>
<path transform="translate(1078,459)" d="m0 0h3v4h3v2h-3l1 10 2 1v2l-5-1-1-1v-11h-2v-2h2z" fill="#475467"/>
<path transform="translate(946,459)" d="m0 0h3v4h3v2h-3v11h3v2l-5-1-1-1v-11h-2v-2h2z" fill="#475467"/>
<path transform="translate(1371,867)" d="m0 0h6v3l-5 1v7l4 1 3 1-2 2h-6l-3-3v-9z" fill="#1480FE"/>
<path transform="translate(1481,198)" d="m0 0h3v23h-3z" fill="#475467"/>
<path transform="translate(148,71)" d="m0 0 5 1 2 4-2 4h-6l-2-3 1-5z" fill="#0A2A56"/>
<path transform="translate(188,1050)" d="m0 0h3v20h-3v-2h-2l1-10z" fill="#354155"/>
<path transform="translate(1373,869)" d="m0 0 5 1 1 5-3 5-4-1-1-1v-7z" fill="#F5F9FD"/>
<path transform="translate(166,606)" d="m0 0h4v17h-4z" fill="#384558"/>
<path transform="translate(918,379)" d="m0 0h6l4 4-2 4h-8z" fill="#F6FAFD"/>
<path transform="translate(1507,869)" d="m0 0 5 1 1 1v6l-2 2-5-1-1-1 1-7z" fill="#F2F8FD"/>
<path transform="translate(1348,867)" d="m0 0h7l2 2v13h-2v-2l-3-1h2v-4l-3-1 3-1-1-3-7 1v-3z" fill="#0F7EFE"/>
<path transform="translate(796,749)" d="m0 0h4l-1 6-3 2h-5l-2-2 1-4z" fill="#F4F9FD"/>
<path transform="translate(350,1095)" d="m0 0h7l2 4-8-1-1 1v7l1 1h5l3-1-1 3-7 1-4-3v-9z" fill="#475467"/>
<path transform="translate(1505,867)" d="m0 0h6v3h-4l-1 7 6 2v2l-5 1-5-5v-6z" fill="#1480FE"/>
<path transform="translate(329,854)" d="m0 0h3v3l2 1-1 13h-4z" fill="#344054"/>
<path transform="translate(214,854)" d="m0 0h3v3l2 1-1 13h-4z" fill="#344054"/>
<path transform="translate(192,558)" d="m0 0h3v3l2 1-1 13h-4z" fill="#344054"/>
<path transform="translate(1277,200)" d="m0 0h2l1 3 3 1v2h-4l1 12 3 1v2l-6-1v-14h-3v-2l2-1z" fill="#475467"/>
<path transform="translate(198,1061)" d="m0 0 6 2-1 4-1 3h-6l-2-3 1-4z" fill="#7F8A99"/>
<path transform="translate(104,719)" d="m0 0h10v10h-2l-1-5-7 7h-2l2-4 5-5-5-1z" fill="#475467"/>
<path transform="translate(1181,203)" d="m0 0 2 1v2l-5 2-1 13h-3v-17h4z" fill="#475467"/>
<path transform="translate(953,203)" d="m0 0 2 1v2l-5 2-1 13h-3v-17h4z" fill="#475467"/>
<path transform="translate(250,1098)" d="m0 0 5 1 1 1-1 7-4 1-3-3 1-6z" fill="#EFF7FD"/>
<path transform="translate(880,749)" d="m0 0h3v5l-3 3-7-1v-5z" fill="#F8FBFD"/>
<path transform="translate(183,1057)" d="m0 0 4 1 1 6-2 3-5-1-1-6z" fill="#F3F9FD"/>
<path transform="translate(936,1033)" d="m0 0 4 1 1 6-2 3-5-1-1-5 1-3z" fill="#F2F8FD"/>
<path transform="translate(779,1033)" d="m0 0 4 1 1 1v7l-1 1h-5l-1-2v-6z" fill="#F7FAFD"/>
<path transform="translate(115,842)" d="m0 0 2 1v4l5 1-1 2h-4l-1 5-2-1v-4l-5-1 1-2h4z" fill="#475467"/>
<path transform="translate(1338,862)" d="m0 0h3v20h-3z" fill="#1781FE"/>
<path transform="translate(1129,458)" d="m0 0h3v20h-3z" fill="#475467"/>
<path transform="translate(971,458)" d="m0 0h3v20h-3z" fill="#475467"/>
<path transform="translate(932,545)" d="m0 0 5 2 2 5-3 4-4 1z" fill="#F7FAFD"/>
<path transform="translate(159,1055)" d="m0 0 4 1 4-1v3l-4 1-1 11h-3z" fill="#344154"/>
<path transform="translate(204,437)" d="m0 0h8l1 5-3 2h-6z" fill="#F6FAFD"/>
<path transform="translate(1324,864)" d="m0 0 7 1 1 5-2 2h-6z" fill="#F5F9FD"/>
<path transform="translate(918,369)" d="m0 0h7l2 4-2 3h-7z" fill="#F9FBFD"/>
<path transform="translate(323,87)" d="m0 0h5l2 2v5h-9l1-6z" fill="#F8FBFD"/>
<path transform="translate(238,87)" d="m0 0h5l2 3v4h-9v-5z" fill="#F7FAFD"/>
<path transform="translate(1414,862)" d="m0 0h2v7h2l-1 13h-3z" fill="#0E7EFE"/>
<path transform="translate(1034,463)" d="m0 0h4 4v2l-5 1v12h-3z" fill="#475467"/>
<path transform="translate(1023,463)" d="m0 0h4 4v2l-5 1v12h-3z" fill="#475467"/>
<path transform="translate(240,430)" d="m0 0h3l1 6-1 11h-3z" fill="#344054"/>
<path transform="translate(672,739)" d="m0 0 5 1 3 5h-12l1-4z" fill="#F7FBFD"/>
<path transform="translate(616,739)" d="m0 0 5 1 2 2v3h-12l3-5z" fill="#F7FBFD"/>
<path transform="translate(1098,469)" d="m0 0h7l2 4-1 2-8 1z" fill="#F5F9FD"/>
<path transform="translate(204,427)" d="m0 0h7l1 1v5l-2 1h-6z" fill="#F3F8FD"/>
<path transform="translate(1052,204)" d="m0 0h3v17h-3l-1-5z" fill="#475467"/>
<path transform="translate(760,204)" d="m0 0h3l1 4-1 13h-3z" fill="#475467"/>
<path transform="translate(721,1028)" d="m0 0h6l2 2-1 5h-7z" fill="#F2F8FD"/>
<path transform="translate(278,558)" d="m0 0h3v17h-3z" fill="#344054"/>
<path transform="translate(1425,204)" d="m0 0h3v17h-3z" fill="#475467"/>
<path transform="translate(1399,204)" d="m0 0h3v17h-3z" fill="#475467"/>
<path transform="translate(925,526)" d="m0 0h3v11l-5-3-1-5z" fill="#F6FAFD"/>
<path transform="translate(1098,460)" d="m0 0h6l2 2-1 4-7 1z" fill="#F2F8FD"/>
<path transform="translate(1041,204)" d="m0 0h2l1 14h7v2l-7 1-3-3z" fill="#475467"/>
<path transform="translate(583,201)" d="m0 0 2 3 2 8h-8l3-10z" fill="#F4F9FD"/>
<path transform="translate(834,212)" d="m0 0 2 1-1 4-2 2h-5l-1-5z" fill="#F2F8FD"/>
<path transform="translate(797,212)" d="m0 0 2 1-1 4-2 2h-5l-1-5z" fill="#F2F8FD"/>
<path transform="translate(170,1055)" d="m0 0h3v15h-3z" fill="#344054"/>
<path transform="translate(1486,867)" d="m0 0h2v2h2l-1 13h-3z" fill="#117FFE"/>
<path transform="translate(1479,867)" d="m0 0h3v15h-3z" fill="#1781FE"/>
<path transform="translate(1361,867)" d="m0 0h3v15h-3z" fill="#1781FE"/>
<path transform="translate(1019,370)" d="m0 0 2 3 2 8h-7l2-10z" fill="#EEF6FD"/>
<path transform="translate(1249,212)" d="m0 0h1v5l-2 2h-5l-2-4 3-2z" fill="#F4F9FD"/>
<path transform="translate(704,212)" d="m0 0h1v5l-2 2h-5l-2-4 3-2z" fill="#F4F9FD"/>
<path transform="translate(1152,463)" d="m0 0h2v2l2 1-1 12h-3z" fill="#475467"/>
<path transform="translate(1195,212)" d="m0 0h1v5l-2 2h-5l-1-5z" fill="#F6FAFD"/>
<path transform="translate(1107,212)" d="m0 0h1v5l-2 2h-5l-1-5z" fill="#F6FAFD"/>
<path transform="translate(976,212)" d="m0 0h1v5l-2 2h-5l-1-5z" fill="#F6FAFD"/>
<path transform="translate(1437,206)" d="m0 0h6l2 5h-10l1-4z" fill="#F5F9FD"/>
<path transform="translate(1362,206)" d="m0 0h6l2 2v3h-10z" fill="#F6FAFD"/>
<path transform="translate(637,206)" d="m0 0h6l2 2v3h-10z" fill="#F6FAFD"/>
<path transform="translate(1157,463)" d="m0 0h5l2 2v13h-2l-1-11-5-2z" fill="#475467"/>
<path transform="translate(298,1095)" d="m0 0h5l2 2v13h-2l-1-12-5-1z" fill="#475467"/>
<path transform="translate(212,1095)" d="m0 0h5l2 2v13h-2l-1-12-5-1z" fill="#475467"/>
<path transform="translate(653,1033)" d="m0 0h2v4l5 1v1h-5v5h-2v-5h-4v-2h4z" fill="#475467"/>
<path transform="translate(1433,875)" d="m0 0h11l-2 1v2l-3 2-5-1z" fill="#E7F3FD"/>
<path transform="translate(867,206)" d="m0 0h5l2 2v3h-9l1-4z" fill="#F9FBFD"/>
<path transform="translate(944,382)" d="m0 0h4l-1 5-6 1-1-4z" fill="#F3F9FD"/>
<path transform="translate(943,724)" d="m0 0 4 2v4l-5 1-2-2 1-4z" fill="#1A2334"/>
<path transform="translate(14,1194)" d="m0 0h1v8h-7l2-4z" fill="#475467"/>
<path transform="translate(313,1103)" d="m0 0h6l-1 4-1 1h-5l-1-4z" fill="#F3F8FD"/>
<path transform="translate(151,1102)" d="m0 0h1v5l-1 1h-6l1-5z" fill="#F4F9FD"/>
<path transform="translate(380,1095)" d="m0 0h2l1 4-1 11h-2z" fill="#475467"/>
<path transform="translate(176,1095)" d="m0 0h2l1 4-1 11h-2z" fill="#475467"/>
<path transform="translate(208,1095)" d="m0 0h2l1 3-1 12h-2z" fill="#475467"/>
<path transform="translate(240,856)" d="m0 0 4 1 1 4h-8l1-4z" fill="#E9F4FD"/>
<path transform="translate(181,743)" d="m0 0h4l-1 5h-6v-4z" fill="#F3F9FD"/>
<path transform="translate(235,567)" d="m0 0h4l-1 5h-6v-4z" fill="#F3F9FD"/>
<path transform="translate(179,567)" d="m0 0h5l-2 5h-5v-4z" fill="#F3F9FD"/>
<path transform="translate(227,439)" d="m0 0h4l-1 5h-6v-4z" fill="#F3F9FD"/>
<path transform="translate(940,1044)" d="m0 0h1v5l-1 1h-6l-2-2 1-2h5z" fill="#E9F4FD"/>
<path transform="translate(316,863)" d="m0 0h5l-1 4-1 1h-5v-4z" fill="#F1F8FD"/>
<path transform="translate(249,736)" d="m0 0 4 2v3h-7l1-4z" fill="#EDF6FD"/>
<path transform="translate(1140,471)" d="m0 0h5l-1 4-5 1-1-4z" fill="#F4F9FD"/>
<path transform="translate(1117,471)" d="m0 0h5l-1 4-5 1-1-4z" fill="#F4F9FD"/>
<path transform="translate(959,471)" d="m0 0h5l-1 4-5 1-1-4z" fill="#F4F9FD"/>
<path transform="translate(1048,465)" d="m0 0h5l2 4h-9z" fill="#F2F8FD"/>
<path transform="translate(220,305)" d="m0 0h5l2 3-1 1h-7z" fill="#1982FE"/>
<path transform="translate(848,1040)" d="m0 0h9v2l-3 2-5-1z" fill="#F5F9FD"/>
<path transform="translate(1189,465)" d="m0 0 5 1 1 3h-8z" fill="#F7FAFD"/>
</svg>
